CalSansUI-Light.ufo
<glyph name="dollar" format="2">
  <advance width="584"/>
  <unicode hex="0024"/>
  <anchor x="309" y="653" name="_TopCurrency"/>
  <outline>
    <contour>
      <point x="300" y="27" type="curve" smooth="yes"/>
      <point x="431" y="27"/>
      <point x="531" y="93"/>
      <point x="531" y="219" type="curve" smooth="yes"/>
      <point x="531" y="452"/>
      <point x="176" y="355"/>
      <point x="176" y="500" type="curve" smooth="yes"/>
      <point x="176" y="562"/>
      <point x="224" y="598"/>
      <point x="311" y="598" type="curve" smooth="yes"/>
      <point x="371" y="598"/>
      <point x="422" y="568"/>
      <point x="458" y="510" type="curve"/>
      <point x="526" y="554" type="line"/>
      <point x="481" y="624"/>
      <point x="413" y="673"/>
      <point x="312" y="673" type="curve" smooth="yes"/>
      <point x="173" y="673"/>
      <point x="92" y="589"/>
      <point x="92" y="495" type="curve" smooth="yes"/>
      <point x="92" y="265"/>
      <point x="446" y="366"/>
      <point x="446" y="214" type="curve" smooth="yes"/>
      <point x="446" y="132"/>
      <point x="379" y="103"/>
      <point x="306" y="103" type="curve" smooth="yes"/>
      <point x="227" y="103"/>
      <point x="167" y="136"/>
      <point x="122" y="208" type="curve"/>
      <point x="54" y="162" type="line"/>
      <point x="108" y="77"/>
      <point x="195" y="27"/>
    </contour>
    <component base="verticalTopCurrencycomb" xOffset="309"/>
    <component base="verticalBottomCurrencycomb" xOffset="309"/>
  </outline>
</glyph>
<glyph name="percent" format="2">
  <advance width="741"/>
  <unicode hex="0025"/>
  <outline>
    <contour>
      <point x="87" y="0" type="line"/>
      <point x="147" y="0" type="line"/>
      <point x="644" y="700" type="line"/>
      <point x="585" y="700" type="line"/>
    </contour>
    <contour>
      <point x="540" y="-6" type="curve" smooth="yes"/>
      <point x="628" y="-6"/>
      <point x="696" y="65"/>
      <point x="696" y="146" type="curve" smooth="yes"/>
      <point x="696" y="227"/>
      <point x="629" y="301"/>
      <point x="540" y="301" type="curve" smooth="yes"/>
      <point x="452" y="301"/>
      <point x="385" y="228"/>
      <point x="385" y="146" type="curve" smooth="yes"/>
      <point x="385" y="65"/>
      <point x="452" y="-6"/>
    </contour>
    <contour>
      <point x="540" y="43" type="curve" smooth="yes"/>
      <point x="481" y="43"/>
      <point x="441" y="89"/>
      <point x="441" y="145" type="curve" smooth="yes"/>
      <point x="441" y="205"/>
      <point x="481" y="251"/>
      <point x="540" y="251" type="curve" smooth="yes"/>
      <point x="600" y="251"/>
      <point x="640" y="205"/>
      <point x="640" y="145" type="curve" smooth="yes"/>
      <point x="641" y="87"/>
      <point x="602" y="43"/>
    </contour>
    <contour>
      <point x="200" y="401" type="curve" smooth="yes"/>
      <point x="288" y="401"/>
      <point x="356" y="472"/>
      <point x="356" y="553" type="curve" smooth="yes"/>
      <point x="356" y="634"/>
      <point x="289" y="708"/>
      <point x="200" y="708" type="curve" smooth="yes"/>
      <point x="112" y="708"/>
      <point x="45" y="635"/>
      <point x="45" y="553" type="curve" smooth="yes"/>
      <point x="45" y="472"/>
      <point x="112" y="401"/>
    </contour>
    <contour>
      <point x="200" y="450" type="curve" smooth="yes"/>
      <point x="141" y="450"/>
      <point x="101" y="496"/>
      <point x="101" y="552" type="curve" smooth="yes"/>
      <point x="101" y="612"/>
      <point x="141" y="658"/>
      <point x="200" y="658" type="curve" smooth="yes"/>
      <point x="260" y="658"/>
      <point x="300" y="612"/>
      <point x="300" y="552" type="curve" smooth="yes"/>
      <point x="301" y="494"/>
      <point x="262" y="450"/>
    </contour>
  </outline>
</glyph>
<glyph name="ampersand" format="2">
  <advance width="662"/>
  <unicode hex="0026"/>
  <outline>
    <contour>
      <point x="270" y="-13" type="curve" smooth="yes"/>
      <point x="340" y="-13"/>
      <point x="408" y="16"/>
      <point x="453" y="65" type="curve" smooth="yes"/>
      <point x="494" y="109" type="line"/>
      <point x="616" y="247" type="line"/>
      <point x="559" y="293" type="line"/>
      <point x="459" y="175" type="line"/>
      <point x="403" y="120" type="line" smooth="yes"/>
      <point x="365" y="82"/>
      <point x="317" y="62"/>
      <point x="271" y="62" type="curve" smooth="yes"/>
      <point x="192" y="62"/>
      <point x="145" y="114"/>
      <point x="145" y="179" type="curve" smooth="yes"/>
      <point x="145" y="229"/>
      <point x="165" y="264"/>
      <point x="216" y="297" type="curve" smooth="yes"/>
      <point x="349" y="383" type="line" smooth="yes"/>
      <point x="430" y="435"/>
      <point x="470" y="508"/>
      <point x="469" y="563" type="curve" smooth="yes"/>
      <point x="468" y="653"/>
      <point x="403" y="713"/>
      <point x="300" y="713" type="curve" smooth="yes"/>
      <point x="195" y="713"/>
      <point x="126" y="650"/>
      <point x="126" y="549" type="curve" smooth="yes"/>
      <point x="126" y="512"/>
      <point x="146" y="460"/>
      <point x="191" y="406" type="curve" smooth="yes"/>
      <point x="431" y="120" type="line"/>
      <point x="456" y="101" type="line"/>
      <point x="527" y="0" type="line"/>
      <point x="637" y="0" type="line"/>
      <point x="260" y="455" type="line" smooth="yes"/>
      <point x="231" y="490"/>
      <point x="210" y="519"/>
      <point x="210" y="557" type="curve" smooth="yes"/>
      <point x="210" y="607"/>
      <point x="246" y="638"/>
      <point x="300" y="638" type="curve" smooth="yes"/>
      <point x="352" y="638"/>
      <point x="385" y="604"/>
      <point x="386" y="557" type="curve" smooth="yes"/>
      <point x="387" y="514"/>
      <point x="353" y="471"/>
      <point x="285" y="431" type="curve" smooth="yes"/>
      <point x="179" y="369" type="line" smooth="yes"/>
      <point x="104" y="325"/>
      <point x="60" y="254"/>
      <point x="60" y="183" type="curve" smooth="yes"/>
      <point x="60" y="70"/>
      <point x="135" y="-13"/>
    </contour>
  </outline>
</glyph>
<glyph name="comma" format="2">
  <advance width="223"/>
  <unicode hex="002C"/>
  <outline>
    <contour>
      <point x="73" y="-173" type="line"/>
      <point x="139" y="-141"/>
      <point x="184" y="-91"/>
      <point x="184" y="-14" type="curve" smooth="yes"/>
      <point x="184" y="56"/>
      <point x="151" y="97"/>
      <point x="102" y="97" type="curve" smooth="yes"/>
      <point x="69" y="97"/>
      <point x="44" y="79"/>
      <point x="44" y="47" type="curve" smooth="yes"/>
      <point x="44" y="17"/>
      <point x="64" y="-4"/>
      <point x="90" y="-4" type="curve" smooth="yes"/>
      <point x="105" y="-4"/>
      <point x="113" y="0"/>
      <point x="122" y="11" type="curve"/>
      <point x="125" y="11" type="line"/>
      <point x="127" y="5"/>
      <point x="128" y="-2"/>
      <point x="128" y="-12" type="curve" smooth="yes"/>
      <point x="128" y="-85"/>
      <point x="85" y="-101"/>
      <point x="47" y="-124" type="curve"/>
    </contour>
  </outline>
</glyph>
<glyph name="slash" format="2">
  <advance width="469"/>
  <unicode hex="002F"/>
  <outline>
    <contour>
      <point x="57" y="-13" type="line"/>
      <point x="131" y="-13" type="line"/>
      <point x="407" y="740" type="line"/>
      <point x="331" y="740" type="line"/>
    </contour>
  </outline>
</glyph>
<glyph name="seven" format="2">
  <advance width="519"/>
  <unicode hex="0037"/>
  <outline>
    <contour>
      <point x="147" y="0" type="line"/>
      <point x="236" y="0" type="line"/>
      <point x="509" y="685" type="line"/>
      <point x="509" y="700" type="line"/>
      <point x="40" y="700" type="line"/>
      <point x="40" y="628" type="line"/>
      <point x="396" y="628" type="line"/>
      <point x="396" y="625" type="line"/>
      <point x="387" y="616"/>
      <point x="381" y="606"/>
      <point x="377" y="595" type="curve" smooth="yes"/>
    </contour>
  </outline>
</glyph>
<glyph name="question" format="2">
  <advance width="511"/>
  <unicode hex="003F"/>
  <outline>
    <contour>
      <point x="213" y="143" type="line"/>
      <point x="270" y="143" type="line"/>
      <point x="278" y="301" type="line"/>
      <point x="282" y="304" type="line"/>
      <point x="401" y="316"/>
      <point x="469" y="392"/>
      <point x="469" y="501" type="curve" smooth="yes"/>
      <point x="469" y="623"/>
      <point x="379" y="713"/>
      <point x="258" y="713" type="curve" smooth="yes"/>
      <point x="118" y="713"/>
      <point x="31" y="619"/>
      <point x="31" y="500" type="curve"/>
      <point x="117" y="500" type="line"/>
      <point x="117" y="575"/>
      <point x="166" y="636"/>
      <point x="256" y="636" type="curve" smooth="yes"/>
      <point x="332" y="636"/>
      <point x="381" y="579"/>
      <point x="381" y="493" type="curve" smooth="yes"/>
      <point x="381" y="416"/>
      <point x="336" y="359"/>
      <point x="243" y="359" type="curve" smooth="yes"/>
      <point x="230" y="359"/>
      <point x="208" y="362"/>
      <point x="204" y="364" type="curve"/>
    </contour>
    <component base="period" xOffset="133"/>
  </outline>
</glyph>
<glyph name="E" format="2">
  <advance width="550"/>
  <unicode hex="0045"/>
  <anchor x="300" y="0" name="bottom"/>
  <anchor x="389" y="0" name="ogonek"/>
  <anchor x="290" y="700" name="top"/>
  <outline>
    <contour>
      <point x="82" y="0" type="line"/>
      <point x="479" y="0" type="line"/>
      <point x="479" y="76" type="line"/>
      <point x="164" y="76" type="line"/>
      <point x="164" y="318" type="line"/>
      <point x="472" y="318" type="line"/>
      <point x="472" y="394" type="line"/>
      <point x="164" y="394" type="line"/>
      <point x="164" y="624" type="line"/>
      <point x="477" y="624" type="line"/>
      <point x="477" y="700" type="line"/>
      <point x="82" y="700" type="line"/>
    </contour>
  </outline>
</glyph>
<glyph name="O" format="2">
  <advance width="778"/>
  <unicode hex="004F"/>
  <anchor x="390" y="0" name="bottom"/>
  <anchor x="383" y="338" name="center"/>
  <anchor x="486" y="0" name="ogonek"/>
  <anchor x="390" y="700" name="top"/>
  <anchor x="595" y="700" name="topright"/>
  <outline>
    <contour>
      <point x="389" y="-13" type="curve" smooth="yes"/>
      <point x="595" y="-13"/>
      <point x="737" y="150"/>
      <point x="737" y="350" type="curve" smooth="yes"/>
      <point x="737" y="552"/>
      <point x="595" y="713"/>
      <point x="389" y="713" type="curve" smooth="yes"/>
      <point x="183" y="713"/>
      <point x="41" y="550"/>
      <point x="41" y="349" type="curve" smooth="yes"/>
      <point x="41" y="148"/>
      <point x="183" y="-13"/>
    </contour>
    <contour>
      <point x="389" y="63" type="curve" smooth="yes"/>
      <point x="231" y="63"/>
      <point x="125" y="178"/>
      <point x="125" y="349" type="curve" smooth="yes"/>
      <point x="125" y="520"/>
      <point x="231" y="637"/>
      <point x="389" y="637" type="curve" smooth="yes"/>
      <point x="548" y="637"/>
      <point x="653" y="521"/>
      <point x="653" y="350" type="curve" smooth="yes"/>
      <point x="653" y="179"/>
      <point x="548" y="63"/>
    </contour>
  </outline>
</glyph>
<glyph name="R" format="2">
  <advance width="578"/>
  <unicode hex="0052"/>
  <anchor x="295" y="0" name="bottom"/>
  <anchor x="451" y="0" name="ogonek"/>
  <anchor x="270" y="700" name="top"/>
  <outline>
    <contour>
      <point x="82" y="0" type="line"/>
      <point x="164" y="0" type="line"/>
      <point x="164" y="303" type="line"/>
      <point x="258" y="303" type="line"/>
      <point x="273" y="276"/>
      <point x="285" y="256"/>
      <point x="296" y="239" type="curve" smooth="yes"/>
      <point x="451" y="0" type="line"/>
      <point x="552" y="0" type="line"/>
      <point x="351" y="310" type="line"/>
      <point x="447" y="322"/>
      <point x="534" y="387"/>
      <point x="534" y="503" type="curve" smooth="yes"/>
      <point x="534" y="635"/>
      <point x="426" y="700"/>
      <point x="299" y="700" type="curve" smooth="yes"/>
      <point x="82" y="700" type="line"/>
    </contour>
    <contour>
      <point x="164" y="379" type="line"/>
      <point x="164" y="624" type="line"/>
      <point x="287" y="624" type="line" smooth="yes"/>
      <point x="383" y="624"/>
      <point x="448" y="592"/>
      <point x="448" y="503" type="curve" smooth="yes"/>
      <point x="448" y="411"/>
      <point x="383" y="379"/>
      <point x="287" y="379" type="curve" smooth="yes"/>
    </contour>
  </outline>
</glyph>
<glyph name="V" format="2">
  <advance width="692"/>
  <unicode hex="0056"/>
  <anchor x="349" y="0" name="bottom"/>
  <anchor x="380" y="0" name="ogonek"/>
  <anchor x="349" y="700" name="top"/>
  <outline>
    <contour>
      <point x="313" y="0" type="line"/>
      <point x="380" y="0" type="line"/>
      <point x="677" y="700" type="line"/>
      <point x="578" y="700" type="line"/>
      <point x="382" y="206" type="line" smooth="yes"/>
      <point x="365" y="162"/>
      <point x="357" y="137"/>
      <point x="349" y="110" type="curve"/>
      <point x="344" y="110" type="line"/>
      <point x="336" y="137"/>
      <point x="327" y="165"/>
      <point x="311" y="206" type="curve" smooth="yes"/>
      <point x="115" y="700" type="line"/>
      <point x="15" y="700" type="line"/>
    </contour>
  </outline>
</glyph>
<glyph name="u" format="2">
  <advance width="550"/>
  <unicode hex="0075"/>
  <anchor x="262" y="0" name="bottom"/>
  <anchor x="400" y="0" name="ogonek"/>
  <anchor x="272" y="490" name="top"/>
  <anchor x="478" y="490" name="topright"/>
  <outline>
    <contour>
      <point x="248" y="-13" type="curve" smooth="yes"/>
      <point x="324" y="-13"/>
      <point x="369" y="27"/>
      <point x="396" y="74" type="curve"/>
      <point x="402" y="74" type="line"/>
      <point x="402" y="0" type="line"/>
      <point x="478" y="0" type="line"/>
      <point x="478" y="490" type="line"/>
      <point x="398" y="490" type="line"/>
      <point x="398" y="194" type="line" smooth="yes"/>
      <point x="398" y="112"/>
      <point x="342" y="61"/>
      <point x="260" y="61" type="curve" smooth="yes"/>
      <point x="193" y="61"/>
      <point x="147" y="112"/>
      <point x="147" y="194" type="curve" smooth="yes"/>
      <point x="147" y="490" type="line"/>
      <point x="67" y="490" type="line"/>
      <point x="67" y="176" type="line" smooth="yes"/>
      <point x="67" y="59"/>
      <point x="144" y="-13"/>
    </contour>
  </outline>
</glyph>
<glyph name="cent" format="2">
  <advance width="485"/>
  <unicode hex="00A2"/>
  <anchor x="265" y="491" name="_TopCurrency"/>
  <outline>
    <contour>
      <point x="267" y="30" type="curve" smooth="yes"/>
      <point x="344" y="30"/>
      <point x="410" y="60"/>
      <point x="455" y="118" type="curve"/>
      <point x="401" y="164" type="line"/>
      <point x="370" y="123"/>
      <point x="327" y="104"/>
      <point x="271" y="104" type="curve" smooth="yes"/>
      <point x="179" y="104"/>
      <point x="110" y="169"/>
      <point x="110" y="273" type="curve" smooth="yes"/>
      <point x="110" y="377"/>
      <point x="178" y="443"/>
      <point x="267" y="443" type="curve" smooth="yes"/>
      <point x="321" y="443"/>
      <point x="365" y="423"/>
      <point x="399" y="380" type="curve"/>
      <point x="456" y="426" type="line"/>
      <point x="410" y="485"/>
      <point x="343" y="518"/>
      <point x="264" y="517" type="curve" smooth="yes"/>
      <point x="131" y="515"/>
      <point x="30" y="415"/>
      <point x="30" y="273" type="curve" smooth="yes"/>
      <point x="30" y="131"/>
      <point x="133" y="30"/>
    </contour>
    <component base="verticalTopCurrencycomb" xOffset="265" yOffset="-162"/>
    <component base="verticalBottomCurrencycomb" xOffset="265" yOffset="2"/>
  </outline>
</glyph>
<glyph name="sterling" format="2">
  <advance width="600"/>
  <unicode hex="00A3"/>
  <outline>
    <contour>
      <point x="104" y="20" type="line"/>
      <point x="129" y="55"/>
      <point x="168" y="69"/>
      <point x="214" y="69" type="curve" smooth="yes"/>
      <point x="289" y="69"/>
      <point x="320" y="24"/>
      <point x="406" y="24" type="curve" smooth="yes"/>
      <point x="451" y="24"/>
      <point x="521" y="45"/>
      <point x="568" y="109" type="curve"/>
      <point x="509" y="155" type="line"/>
      <point x="487" y="118"/>
      <point x="455" y="97"/>
      <point x="411" y="97" type="curve" smooth="yes"/>
      <point x="311" y="97"/>
      <point x="300" y="166"/>
      <point x="164" y="114" type="curve" smooth="yes"/>
      <point x="157" y="111"/>
      <point x="148" y="108"/>
      <point x="138" y="106" type="curve"/>
      <point x="150" y="94" type="line"/>
      <point x="210" y="140"/>
      <point x="261" y="224"/>
      <point x="261" y="264" type="curve" smooth="yes"/>
      <point x="261" y="290"/>
      <point x="259" y="310"/>
      <point x="244" y="330" type="curve"/>
      <point x="226" y="351" type="line"/>
      <point x="185" y="399"/>
      <point x="171" y="440"/>
      <point x="171" y="476" type="curve" smooth="yes"/>
      <point x="171" y="557"/>
      <point x="229" y="599"/>
      <point x="313" y="599" type="curve" smooth="yes"/>
      <point x="398" y="599"/>
      <point x="459" y="547"/>
      <point x="459" y="464" type="curve"/>
      <point x="542" y="464" type="line"/>
      <point x="542" y="589"/>
      <point x="449" y="673"/>
      <point x="313" y="673" type="curve" smooth="yes"/>
      <point x="176" y="673"/>
      <point x="85" y="600"/>
      <point x="85" y="480" type="curve" smooth="yes"/>
      <point x="85" y="414"/>
      <point x="110" y="370"/>
      <point x="161" y="335" type="curve"/>
      <point x="156" y="333" type="line"/>
      <point x="169" y="318"/>
      <point x="179" y="294"/>
      <point x="179" y="262" type="curve" smooth="yes"/>
      <point x="179" y="229"/>
      <point x="133" y="174"/>
      <point x="86" y="122" type="curve" smooth="yes"/>
      <point x="39" y="70" type="line"/>
    </contour>
    <contour>
      <point x="35" y="299" type="line"/>
      <point x="411" y="299" type="line"/>
      <point x="411" y="371" type="line"/>
      <point x="35" y="371" type="line"/>
    </contour>
  </outline>
</glyph>
<glyph name="copyright" format="2">
  <advance width="896"/>
  <unicode hex="00A9"/>
  <outline>
    <contour>
      <point x="448" y="-50" type="curve" smooth="yes"/>
      <point x="671" y="-50"/>
      <point x="842" y="129"/>
      <point x="842" y="352" type="curve" smooth="yes"/>
      <point x="842" y="576"/>
      <point x="671" y="754"/>
      <point x="448" y="754" type="curve" smooth="yes"/>
      <point x="225" y="754"/>
      <point x="54" y="576"/>
      <point x="54" y="352" type="curve" smooth="yes"/>
      <point x="54" y="129"/>
      <point x="225" y="-50"/>
    </contour>
    <contour>
      <point x="448" y="14" type="curve" smooth="yes"/>
      <point x="263" y="14"/>
      <point x="122" y="166"/>
      <point x="122" y="352" type="curve" smooth="yes"/>
      <point x="122" y="537"/>
      <point x="263" y="689"/>
      <point x="448" y="689" type="curve" smooth="yes"/>
      <point x="634" y="689"/>
      <point x="774" y="537"/>
      <point x="774" y="352" type="curve" smooth="yes"/>
      <point x="774" y="166"/>
      <point x="634" y="14"/>
    </contour>
    <contour>
      <point x="456" y="99" type="curve" smooth="yes"/>
      <point x="537" y="99"/>
      <point x="599" y="129"/>
      <point x="642" y="180" type="curve"/>
      <point x="599" y="215" type="line"/>
      <point x="563" y="174"/>
      <point x="522" y="153"/>
      <point x="458" y="153" type="curve" smooth="yes"/>
      <point x="351" y="153"/>
      <point x="264" y="237"/>
      <point x="264" y="355" type="curve" smooth="yes"/>
      <point x="264" y="473"/>
      <point x="344" y="559"/>
      <point x="456" y="559" type="curve" smooth="yes"/>
      <point x="510" y="559"/>
      <point x="558" y="544"/>
      <point x="594" y="498" type="curve"/>
      <point x="637" y="535" type="line"/>
      <point x="593" y="588"/>
      <point x="532" y="613"/>
      <point x="456" y="613" type="curve" smooth="yes"/>
      <point x="311" y="613"/>
      <point x="202" y="500"/>
      <point x="202" y="355" type="curve" smooth="yes"/>
      <point x="202" y="211"/>
      <point x="313" y="99"/>
    </contour>
  </outline>
</glyph>
<glyph name="germandbls" format="2">
  <advance width="612"/>
  <unicode hex="00DF"/>
  <outline>
    <contour>
      <point x="338" y="-13" type="curve" smooth="yes"/>
      <point x="494" y="-13"/>
      <point x="565" y="82"/>
      <point x="565" y="190" type="curve" smooth="yes"/>
      <point x="565" y="276"/>
      <point x="480" y="359"/>
      <point x="366" y="359" type="curve"/>
      <point x="366" y="363" type="line"/>
      <point x="445" y="383"/>
      <point x="504" y="439"/>
      <point x="504" y="529" type="curve" smooth="yes"/>
      <point x="504" y="624"/>
      <point x="414" y="713"/>
      <point x="295" y="713" type="curve" smooth="yes"/>
      <point x="168" y="713"/>
      <point x="72" y="619"/>
      <point x="72" y="494" type="curve" smooth="yes"/>
      <point x="72" y="0" type="line"/>
      <point x="152" y="0" type="line"/>
      <point x="152" y="494" type="line" smooth="yes"/>
      <point x="152" y="582"/>
      <point x="209" y="637"/>
      <point x="291" y="637" type="curve" smooth="yes"/>
      <point x="370" y="637"/>
      <point x="422" y="590"/>
      <point x="422" y="514" type="curve" smooth="yes"/>
      <point x="422" y="421"/>
      <point x="354" y="389"/>
      <point x="250" y="384" type="curve"/>
      <point x="250" y="318" type="line"/>
      <point x="384" y="335"/>
      <point x="485" y="276"/>
      <point x="485" y="184" type="curve" smooth="yes"/>
      <point x="485" y="106"/>
      <point x="431" y="61"/>
      <point x="341" y="61" type="curve" smooth="yes"/>
      <point x="307" y="61"/>
      <point x="284" y="64"/>
      <point x="250" y="76" type="curve"/>
      <point x="250" y="3" type="line"/>
      <point x="273" y="-9"/>
      <point x="307" y="-13"/>
    </contour>
  </outline>
</glyph>
<glyph name="eth" format="2">
  <advance width="574"/>
  <unicode hex="00F0"/>
  <outline>
    <contour>
      <point x="412" y="454" type="curve"/>
      <point x="407" y="451" type="line"/>
      <point x="366" y="493"/>
      <point x="317" y="503"/>
      <point x="277" y="503" type="curve" smooth="yes"/>
      <point x="139" y="503"/>
      <point x="36" y="388"/>
      <point x="36" y="235" type="curve" smooth="yes"/>
      <point x="36" y="98"/>
      <point x="132" y="-13"/>
      <point x="283" y="-13" type="curve" smooth="yes"/>
      <point x="428" y="-13"/>
      <point x="538" y="87"/>
      <point x="538" y="254" type="curve" smooth="yes"/>
      <point x="538" y="445"/>
      <point x="395" y="687"/>
      <point x="219" y="825" type="curve"/>
      <point x="163" y="770" type="line"/>
      <point x="278" y="674"/>
      <point x="337" y="604"/>
    </contour>
    <contour>
      <point x="284" y="61" type="curve" smooth="yes"/>
      <point x="181" y="61"/>
      <point x="116" y="141"/>
      <point x="116" y="245" type="curve" smooth="yes"/>
      <point x="116" y="350"/>
      <point x="188" y="429"/>
      <point x="284" y="429" type="curve" smooth="yes"/>
      <point x="387" y="429"/>
      <point x="453" y="349"/>
      <point x="453" y="245" type="curve" smooth="yes"/>
      <point x="453" y="139"/>
      <point x="387" y="61"/>
    </contour>
    <contour>
      <point x="165" y="546" type="line"/>
      <point x="494" y="666" type="line"/>
      <point x="494" y="735" type="line"/>
      <point x="331" y="675" type="line"/>
      <point x="296" y="663" type="line"/>
      <point x="165" y="615" type="line"/>
    </contour>
  </outline>
</glyph>
<glyph name="hookabovecomb" format="2">
  <unicode hex="0309"/>
  <anchor x="0" y="490" name="_top"/>
  <anchor x="0" y="662" name="top"/>
  <outline>
    <contour>
      <point x="-29" y="540" type="curve"/>
      <point x="27" y="540" type="line"/>
      <point x="48" y="555"/>
      <point x="57" y="579"/>
      <point x="57" y="603" type="curve" smooth="yes"/>
      <point x="57" y="648"/>
      <point x="28" y="686"/>
      <point x="-37" y="686" type="curve" smooth="yes"/>
      <point x="-63" y="686"/>
      <point x="-91" y="679"/>
      <point x="-112" y="661" type="curve"/>
      <point x="-80" y="615" type="line"/>
      <point x="-69" y="624"/>
      <point x="-55" y="631"/>
      <point x="-35" y="631" type="curve" smooth="yes"/>
      <point x="-9" y="631"/>
      <point x="10" y="617"/>
      <point x="10" y="595" type="curve" smooth="yes"/>
      <point x="10" y="572"/>
      <point x="-4" y="553"/>
    </contour>
  </outline>
</glyph>
<glyph name="euro" format="2">
  <advance width="681"/>
  <unicode hex="20AC"/>
  <outline>
    <contour>
      <point x="419" y="17" type="curve" smooth="yes"/>
      <point x="531" y="17"/>
      <point x="607" y="64"/>
      <point x="660" y="128" type="curve"/>
      <point x="604" y="174" type="line"/>
      <point x="543" y="106"/>
      <point x="499" y="89"/>
      <point x="424" y="89" type="curve" smooth="yes"/>
      <point x="311" y="89"/>
      <point x="221" y="146"/>
      <point x="182" y="283" type="curve" smooth="yes"/>
      <point x="176" y="304" type="line"/>
      <point x="168" y="344"/>
      <point x="167" y="360"/>
      <point x="175" y="400" type="curve"/>
      <point x="182" y="422" type="line"/>
      <point x="227" y="565"/>
      <point x="311" y="611"/>
      <point x="420" y="611" type="curve" smooth="yes"/>
      <point x="489" y="611"/>
      <point x="551" y="584"/>
      <point x="593" y="540" type="curve"/>
      <point x="641" y="595" type="line"/>
      <point x="588" y="648"/>
      <point x="523" y="683"/>
      <point x="419" y="683" type="curve" smooth="yes"/>
      <point x="223" y="683"/>
      <point x="85" y="530"/>
      <point x="85" y="349" type="curve" smooth="yes"/>
      <point x="85" y="169"/>
      <point x="231" y="17"/>
    </contour>
    <contour>
      <point x="-8" y="243" type="line"/>
      <point x="401" y="243" type="line"/>
      <point x="449" y="315" type="line"/>
      <point x="41" y="315" type="line"/>
    </contour>
    <contour>
      <point x="-11" y="385" type="line"/>
      <point x="494" y="385" type="line"/>
      <point x="543" y="457" type="line"/>
      <point x="39" y="457" type="line"/>
    </contour>
  </outline>
</glyph>
<glyph name="tenge" format="2">
  <advance width="591"/>
  <unicode hex="20B8"/>
  <outline>
    <contour>
      <point x="255" y="30" type="line"/>
      <point x="337" y="30" type="line"/>
      <point x="337" y="510" type="line"/>
      <point x="255" y="510" type="line"/>
    </contour>
    <contour>
      <point x="47" y="473" type="line"/>
      <point x="544" y="473" type="line"/>
      <point x="544" y="549" type="line"/>
      <point x="47" y="549" type="line"/>
    </contour>
    <contour>
      <point x="47" y="598" type="line"/>
      <point x="544" y="598" type="line"/>
      <point x="543" y="670" type="line"/>
      <point x="47" y="670" type="line"/>
    </contour>
  </outline>
</glyph>
<glyph name="upArrow" format="2">
  <advance width="600"/>
  <unicode hex="2191"/>
  <outline>
    <contour>
      <point x="259" y="40" type="line"/>
      <point x="339" y="41" type="line"/>
      <point x="339" y="519" type="line"/>
      <point x="345" y="521" type="line"/>
      <point x="467" y="387" type="line"/>
      <point x="523" y="442" type="line"/>
      <point x="300" y="672" type="line"/>
      <point x="77" y="442" type="line"/>
      <point x="133" y="387" type="line"/>
      <point x="253" y="520" type="line"/>
      <point x="259" y="518" type="line"/>
    </contour>
  </outline>
</glyph>
<glyph name="integral" format="2">
  <advance width="421"/>
  <unicode hex="222B"/>
  <outline>
    <contour>
      <point x="-120" y="-223" type="line"/>
      <point x="-96" y="-229"/>
      <point x="-79" y="-233"/>
      <point x="-45" y="-233" type="curve" smooth="yes"/>
      <point x="49" y="-233"/>
      <point x="122" y="-190"/>
      <point x="153" y="-51" type="curve" smooth="yes"/>
      <point x="275" y="499" type="line" smooth="yes"/>
      <point x="299" y="606"/>
      <point x="326" y="638"/>
      <point x="398" y="638" type="curve" smooth="yes"/>
      <point x="411" y="638"/>
      <point x="425" y="636"/>
      <point x="438" y="631" type="curve"/>
      <point x="451" y="704" type="line"/>
      <point x="437" y="709"/>
      <point x="418" y="713"/>
      <point x="398" y="713" type="curve" smooth="yes"/>
      <point x="301" y="713"/>
      <point x="229" y="666"/>
      <point x="198" y="526" type="curve" smooth="yes"/>
      <point x="70" y="-54" type="line" smooth="yes"/>
      <point x="53" y="-129"/>
      <point x="21" y="-158"/>
      <point x="-45" y="-158" type="curve" smooth="yes"/>
      <point x="-68" y="-158"/>
      <point x="-84" y="-156"/>
      <point x="-108" y="-149" type="curve"/>
    </contour>
  </outline>
</glyph>
<glyph name="whiteSquare" format="2">
  <advance width="890"/>
  <unicode hex="25A1"/>
  <outline>
    <contour>
      <point x="90" y="0" type="line"/>
      <point x="800" y="0" type="line"/>
      <point x="800" y="700" type="line"/>
      <point x="90" y="700" type="line"/>
    </contour>
    <contour>
      <point x="166" y="75" type="line"/>
      <point x="166" y="625" type="line"/>
      <point x="724" y="625" type="line"/>
      <point x="724" y="75" type="line"/>
    </contour>
  </outline>
</glyph>
<glyph name="whiteSmallSquare" format="2">
  <advance width="357"/>
  <unicode hex="25AB"/>
  <outline>
    <contour>
      <point x="90" y="275" type="line"/>
      <point x="267" y="275" type="line"/>
      <point x="267" y="451" type="line"/>
      <point x="90" y="451" type="line"/>
    </contour>
    <contour>
      <point x="146" y="331" type="line"/>
      <point x="146" y="395" type="line"/>
      <point x="211" y="395" type="line"/>
      <point x="211" y="331" type="line"/>
    </contour>
  </outline>
</glyph>
<glyph name="upWhiteSmallTriangle" format="2">
  <advance width="287"/>
  <unicode hex="25B5"/>
  <outline>
    <contour>
      <point x="45" y="292" type="line"/>
      <point x="242" y="292" type="line"/>
      <point x="143" y="463" type="line"/>
    </contour>
    <contour>
      <point x="107" y="328" type="line"/>
      <point x="143" y="391" type="line"/>
      <point x="179" y="328" type="line"/>
    </contour>
  </outline>
</glyph>
<glyph name="mediumBlackSquare" format="2">
  <advance width="770"/>
  <unicode hex="25FC"/>
  <outline>
    <contour>
      <point x="159" y="154" type="line"/>
      <point x="611" y="154" type="line"/>
      <point x="611" y="594" type="line"/>
      <point x="159" y="594" type="line"/>
    </contour>
  </outline>
</glyph>
<glyph name="whiteStar" format="2">
  <advance width="809"/>
  <unicode hex="2606"/>
  <outline>
    <contour>
      <point x="157" y="-13" type="line"/>
      <point x="404" y="167" type="line"/>
      <point x="651" y="-13" type="line"/>
      <point x="557" y="277" type="line"/>
      <point x="804" y="457" type="line"/>
      <point x="499" y="457" type="line"/>
      <point x="404" y="747" type="line"/>
      <point x="310" y="457" type="line"/>
      <point x="5" y="457" type="line"/>
      <point x="252" y="277" type="line"/>
    </contour>
    <contour>
      <point x="214" y="63" type="line"/>
      <point x="300" y="291" type="line"/>
      <point x="92" y="428" type="line"/>
      <point x="341" y="419" type="line"/>
      <point x="404" y="643" type="line"/>
      <point x="468" y="419" type="line"/>
      <point x="717" y="428" type="line"/>
      <point x="509" y="291" type="line"/>
      <point x="593" y="63" type="line"/>
      <point x="404" y="216" type="line"/>
    </contour>
  </outline>
</glyph>
<glyph name="checkmark" format="2">
  <advance width="600"/>
  <unicode hex="2713"/>
  <outline>
    <contour>
      <point x="235" y="146" type="line"/>
      <point x="275" y="200" type="line"/>
      <point x="121" y="365" type="line"/>
      <point x="73" y="319" type="line"/>
    </contour>
    <contour>
      <point x="235" y="146" type="line"/>
      <point x="560" y="496" type="line"/>
      <point x="511" y="542" type="line"/>
      <point x="196" y="203" type="line"/>
    </contour>
  </outline>
</glyph>
<glyph name="heavyBlackHeart" format="2">
  <advance width="832"/>
  <unicode hex="2764"/>
  <outline>
    <contour>
      <point x="414" y="42" type="curve"/>
      <point x="418" y="42" type="line"/>
      <point x="553" y="302"/>
      <point x="827" y="251"/>
      <point x="827" y="493" type="curve" smooth="yes"/>
      <point x="827" y="587"/>
      <point x="735" y="666"/>
      <point x="622" y="666" type="curve" smooth="yes"/>
      <point x="524" y="666"/>
      <point x="431" y="595"/>
      <point x="419" y="516" type="curve"/>
      <point x="413" y="516" type="line"/>
      <point x="405" y="595"/>
      <point x="313" y="666"/>
      <point x="210" y="666" type="curve" smooth="yes"/>
      <point x="96" y="666"/>
      <point x="5" y="587"/>
      <point x="5" y="493" type="curve" smooth="yes"/>
      <point x="5" y="251"/>
      <point x="279" y="302"/>
    </contour>
  </outline>
</glyph>
<glyph name="fi" format="2">
  <advance width="588"/>
  <unicode hex="FB01"/>
  <anchor x="155" y="0" name="bottom_1"/>
  <anchor x="242" y="700" name="top_1"/>
  <anchor x="477" y="0" name="bottom_2"/>
  <anchor x="439" y="0" name="ogonek_2"/>
  <anchor x="477" y="490" name="top_2"/>
  <anchor x="369" y="0" name="caret_1"/>
  <outline>
    <contour>
      <point x="17" y="418" type="line"/>
      <point x="507" y="418" type="line"/>
      <point x="517" y="490" type="line"/>
      <point x="17" y="490" type="line"/>
    </contour>
    <component base="f"/>
    <component base="i" xOffset="365"/>
  </outline>
</glyph>
<glyph name="C.ss10" format="2">
  <advance width="585"/>
  <anchor x="399" y="0" name="bottom"/>
  <anchor x="502" y="0" name="ogonek"/>
  <anchor x="399" y="700" name="top"/>
  <outline>
    <contour>
      <point x="399" y="-13" type="curve" smooth="yes"/>
      <point x="458" y="-13"/>
      <point x="509" y="-2"/>
      <point x="554" y="19" type="curve"/>
      <point x="560" y="116" type="line"/>
      <point x="518" y="83"/>
      <point x="469" y="67"/>
      <point x="402" y="67" type="curve" smooth="yes"/>
      <point x="251" y="67"/>
      <point x="128" y="182"/>
      <point x="128" y="349" type="curve" smooth="yes"/>
      <point x="128" y="515"/>
      <point x="241" y="633"/>
      <point x="399" y="633" type="curve" smooth="yes"/>
      <point x="461" y="633"/>
      <point x="517" y="618"/>
      <point x="564" y="578" type="curve"/>
      <point x="564" y="674" type="line"/>
      <point x="516" y="701"/>
      <point x="461" y="713"/>
      <point x="399" y="713" type="curve" smooth="yes"/>
      <point x="195" y="713"/>
      <point x="41" y="553"/>
      <point x="41" y="349" type="curve" smooth="yes"/>
      <point x="41" y="145"/>
      <point x="197" y="-13"/>
    </contour>
  </outline>
</glyph>
<glyph name="caroncomb.alt" format="2">
  <anchor x="37" y="700" name="_topright"/>
  <outline>
    <contour>
      <point x="1" y="536" type="line"/>
      <point x="67" y="536" type="line"/>
      <point x="155" y="700" type="line"/>
      <point x="61" y="700" type="line"/>
    </contour>
  </outline>
</glyph>
<glyph name="comma.ss04" format="2">
  <advance width="223"/>
  <outline>
    <contour>
      <point x="73" y="-173" type="line"/>
      <point x="139" y="-141"/>
      <point x="184" y="-91"/>
      <point x="184" y="-14" type="curve" smooth="yes"/>
      <point x="184" y="56"/>
      <point x="151" y="97"/>
      <point x="102" y="97" type="curve" smooth="yes"/>
      <point x="69" y="97"/>
      <point x="44" y="79"/>
      <point x="44" y="47" type="curve" smooth="yes"/>
      <point x="44" y="17"/>
      <point x="64" y="-4"/>
      <point x="90" y="-4" type="curve" smooth="yes"/>
      <point x="105" y="-4"/>
      <point x="113" y="0"/>
      <point x="122" y="11" type="curve"/>
      <point x="125" y="11" type="line"/>
      <point x="127" y="5"/>
      <point x="128" y="-2"/>
      <point x="128" y="-12" type="curve" smooth="yes"/>
      <point x="128" y="-85"/>
      <point x="85" y="-101"/>
      <point x="47" y="-124" type="curve"/>
    </contour>
  </outline>
</glyph>
<glyph name="euro.ss10" format="2">
  <advance width="565"/>
  <outline>
    <contour>
      <point x="369" y="27" type="curve" smooth="yes"/>
      <point x="428" y="27"/>
      <point x="479" y="38"/>
      <point x="524" y="59" type="curve"/>
      <point x="530" y="152" type="line"/>
      <point x="488" y="119"/>
      <point x="439" y="103"/>
      <point x="372" y="103" type="curve" smooth="yes"/>
      <point x="268" y="103"/>
      <point x="173" y="143"/>
      <point x="140" y="264" type="curve"/>
      <point x="133" y="282" type="line"/>
      <point x="123" y="324"/>
      <point x="124" y="376"/>
      <point x="134" y="422" type="curve"/>
      <point x="140" y="440" type="line"/>
      <point x="173" y="558"/>
      <point x="262" y="597"/>
      <point x="369" y="597" type="curve" smooth="yes"/>
      <point x="431" y="597"/>
      <point x="487" y="582"/>
      <point x="534" y="542" type="curve"/>
      <point x="534" y="634" type="line"/>
      <point x="486" y="661"/>
      <point x="431" y="673"/>
      <point x="369" y="673" type="curve" smooth="yes"/>
      <point x="185" y="673"/>
      <point x="41" y="553"/>
      <point x="41" y="349" type="curve" smooth="yes"/>
      <point x="41" y="145"/>
      <point x="187" y="27"/>
    </contour>
    <contour>
      <point x="90" y="236" type="line"/>
      <point x="453" y="236" type="line"/>
      <point x="453" y="308" type="line"/>
      <point x="90" y="308" type="line"/>
    </contour>
    <contour>
      <point x="90" y="391" type="line"/>
      <point x="453" y="391" type="line"/>
      <point x="453" y="463" type="line"/>
      <point x="90" y="463" type="line"/>
    </contour>
  </outline>
</glyph>
<glyph name="f_f_i.ss11" format="2">
  <advance width="886"/>
  <anchor x="787" y="0" name="bottom_1"/>
  <anchor x="749" y="0" name="ogonek_1"/>
  <anchor x="787" y="490" name="top_1"/>
  <anchor x="369" y="0" name="caret_1"/>
  <anchor x="685" y="0" name="caret_2"/>
  <outline>
    <contour>
      <point x="117" y="0" type="line"/>
      <point x="197" y="0" type="line"/>
      <point x="197" y="526" type="line" smooth="yes"/>
      <point x="197" y="588"/>
      <point x="234" y="639"/>
      <point x="315" y="639" type="curve" smooth="yes"/>
      <point x="391" y="639"/>
      <point x="432" y="588"/>
      <point x="432" y="526" type="curve" smooth="yes"/>
      <point x="432" y="0" type="line"/>
      <point x="512" y="0" type="line"/>
      <point x="512" y="526" type="line" smooth="yes"/>
      <point x="512" y="588"/>
      <point x="549" y="639"/>
      <point x="630" y="639" type="curve" smooth="yes"/>
      <point x="706" y="639"/>
      <point x="745" y="588"/>
      <point x="745" y="526" type="curve"/>
      <point x="734" y="546" type="line"/>
      <point x="830" y="546" type="line"/>
      <point x="825" y="530" type="line"/>
      <point x="825" y="626"/>
      <point x="755" y="713"/>
      <point x="630" y="713" type="curve" smooth="yes"/>
      <point x="551" y="713"/>
      <point x="498" y="680"/>
      <point x="467" y="614" type="curve"/>
      <point x="512" y="626" type="line"/>
      <point x="430" y="626" type="line"/>
      <point x="475" y="613" type="line"/>
      <point x="443" y="681"/>
      <point x="390" y="713"/>
      <point x="315" y="713" type="curve" smooth="yes"/>
      <point x="194" y="713"/>
      <point x="117" y="626"/>
      <point x="117" y="530" type="curve" smooth="yes"/>
    </contour>
    <contour>
      <point x="17" y="418" type="line"/>
      <point x="675" y="418" type="line"/>
      <point x="675" y="490" type="line"/>
      <point x="17" y="490" type="line"/>
    </contour>
    <component base="idotless" xOffset="675"/>
  </outline>
</glyph>
<glyph name="f_f_l.ss11" format="2">
  <advance width="899"/>
  <anchor x="369" y="0" name="caret_1"/>
  <anchor x="685" y="0" name="caret_2"/>
  <outline>
    <contour>
      <point x="117" y="0" type="line"/>
      <point x="197" y="0" type="line"/>
      <point x="197" y="526" type="line" smooth="yes"/>
      <point x="197" y="588"/>
      <point x="234" y="639"/>
      <point x="315" y="639" type="curve" smooth="yes"/>
      <point x="391" y="639"/>
      <point x="432" y="588"/>
      <point x="432" y="526" type="curve" smooth="yes"/>
      <point x="432" y="0" type="line"/>
      <point x="512" y="0" type="line"/>
      <point x="512" y="526" type="line" smooth="yes"/>
      <point x="512" y="588"/>
      <point x="549" y="639"/>
      <point x="630" y="639" type="curve" smooth="yes"/>
      <point x="706" y="639"/>
      <point x="747" y="588"/>
      <point x="747" y="526" type="curve" smooth="yes"/>
      <point x="747" y="0" type="line"/>
      <point x="827" y="0" type="line"/>
      <point x="827" y="526" type="line" smooth="yes"/>
      <point x="827" y="626"/>
      <point x="746" y="713"/>
      <point x="630" y="713" type="curve" smooth="yes"/>
      <point x="551" y="713"/>
      <point x="481" y="670"/>
      <point x="467" y="604" type="curve"/>
      <point x="512" y="629" type="line"/>
      <point x="430" y="629" type="line"/>
      <point x="475" y="603" type="line"/>
      <point x="460" y="671"/>
      <point x="390" y="713"/>
      <point x="315" y="713" type="curve" smooth="yes"/>
      <point x="194" y="713"/>
      <point x="117" y="626"/>
      <point x="117" y="530" type="curve" smooth="yes"/>
    </contour>
    <contour>
      <point x="17" y="418" type="line"/>
      <point x="675" y="418" type="line"/>
      <point x="675" y="490" type="line"/>
      <point x="17" y="490" type="line"/>
    </contour>
  </outline>
</glyph>
<glyph name="f_i.ss11" format="2">
  <advance width="584"/>
  <anchor x="472" y="0" name="bottom_1"/>
  <anchor x="434" y="0" name="ogonek_1"/>
  <anchor x="472" y="490" name="top_1"/>
  <anchor x="369" y="0" name="caret_1"/>
  <outline>
    <contour>
      <point x="117" y="0" type="line"/>
      <point x="197" y="0" type="line"/>
      <point x="197" y="546" type="line" smooth="yes"/>
      <point x="197" y="628"/>
      <point x="234" y="679"/>
      <point x="315" y="679" type="curve" smooth="yes"/>
      <point x="391" y="679"/>
      <point x="432" y="628"/>
      <point x="432" y="546" type="curve"/>
      <point x="512" y="546" type="line"/>
      <point x="512" y="666"/>
      <point x="431" y="753"/>
      <point x="315" y="753" type="curve" smooth="yes"/>
      <point x="194" y="753"/>
      <point x="117" y="666"/>
      <point x="117" y="550" type="curve" smooth="yes"/>
    </contour>
    <contour>
      <point x="17" y="418" type="line"/>
      <point x="360" y="418" type="line"/>
      <point x="360" y="490" type="line"/>
      <point x="17" y="490" type="line"/>
    </contour>
    <component base="idotless" xOffset="360"/>
  </outline>
</glyph>
<glyph name="germandbls.ss10" format="2">
  <advance width="656"/>
  <outline>
    <contour>
      <point x="17" y="418" type="line"/>
      <point x="162" y="418" type="line"/>
      <point x="162" y="490" type="line"/>
      <point x="17" y="490" type="line"/>
    </contour>
    <component base="germandbls" xOffset="44"/>
  </outline>
</glyph>
<glyph name="horn.alt" format="2">
  <advance width="300"/>
  <anchor x="110" y="490" name="_topright"/>
  <outline>
    <contour>
      <point x="62" y="438" type="line"/>
      <point x="140" y="438"/>
      <point x="206" y="467"/>
      <point x="206" y="547" type="curve" smooth="yes"/>
      <point x="206" y="567"/>
      <point x="202" y="585"/>
      <point x="195" y="600" type="curve"/>
      <point x="128" y="600" type="line"/>
      <point x="134" y="583"/>
      <point x="137" y="569"/>
      <point x="137" y="559" type="curve" smooth="yes"/>
      <point x="138" y="525"/>
      <point x="123" y="490"/>
      <point x="30" y="490" type="curve"/>
    </contour>
  </outline>
</glyph>
<glyph name="horn.alt_case" format="2">
  <advance width="419"/>
  <anchor x="158" y="700" name="_topright"/>
  <outline>
    <contour>
      <point x="130" y="633" type="line"/>
      <point x="229" y="625"/>
      <point x="289" y="669"/>
      <point x="289" y="745" type="curve" smooth="yes"/>
      <point x="289" y="780"/>
      <point x="284" y="795"/>
      <point x="279" y="810" type="curve"/>
      <point x="203" y="810" type="line"/>
      <point x="210" y="793"/>
      <point x="215" y="775"/>
      <point x="215" y="755" type="curve" smooth="yes"/>
      <point x="215" y="725"/>
      <point x="197" y="700"/>
      <point x="143" y="700" type="curve"/>
    </contour>
  </outline>
</glyph>
<glyph name="quotesingle.ss04" format="2">
  <advance width="183"/>
  <outline>
    <contour>
      <point x="43" y="700" type="line"/>
      <point x="66" y="450" type="line"/>
      <point x="116" y="450" type="line"/>
      <point x="140" y="700" type="line"/>
    </contour>
  </outline>
</glyph>
<glyph name="seven.numr" format="2">
  <advance width="290"/>
  <outline>
    <contour>
      <point x="79" y="313" type="line"/>
      <point x="136" y="313" type="line"/>
      <point x="284" y="687" type="line"/>
      <point x="284" y="700" type="line"/>
      <point x="24" y="700" type="line"/>
      <point x="24" y="652" type="line"/>
      <point x="212" y="652" type="line"/>
      <point x="212" y="651" type="line"/>
      <point x="210" y="648"/>
      <point x="208" y="645"/>
      <point x="206" y="640" type="curve" smooth="yes"/>
    </contour>
  </outline>
</glyph>
